# This file uses centimeters as units for non-parametric coordinates.

mtllib door_right.mtl
g default
v 0.948382 0.303590 -0.051461
v 0.806342 0.582358 -0.051461
v 0.585110 0.803590 -0.051461
v 0.306342 0.945629 -0.051461
v 0.306342 -0.956484 -0.051461
v 0.585110 -0.814445 -0.051461
v 0.806342 -0.593213 -0.051461
v 0.948381 -0.314445 -0.051461
v 0.997325 -0.005428 -0.051461
v 0.948382 0.303590 0.035944
v 0.806342 0.582358 0.035944
v 0.585110 0.803590 0.035944
v 0.306342 0.945629 0.035944
v 0.306342 -0.956484 0.035944
v 0.585110 -0.814445 0.035944
v 0.806342 -0.593213 0.035944
v 0.948381 -0.314445 0.035944
v 0.997325 -0.005428 0.035944
v -0.002675 0.994573 -0.051461
v -0.002675 0.994573 0.035944
v -0.002675 -1.005428 0.035944
v -0.002675 -1.005428 -0.051461
v -0.002675 -0.005428 -0.051461
v -0.002675 -0.005428 0.035944
v 0.174915 0.053209 -0.008547
v 0.147960 0.106106 -0.009258
v 0.105977 0.148086 -0.009822
v 0.053075 0.175038 -0.010184
v 0.053075 -0.185893 -0.005333
v 0.105977 -0.158941 -0.005695
v 0.147960 -0.116961 -0.006259
v 0.174915 -0.064064 -0.006970
v 0.184203 -0.005428 -0.007758
v 0.445638 0.143373 0.154602
v 0.378251 0.275616 0.152824
v 0.273293 0.380564 0.151413
v 0.141039 0.447945 0.150508
v 0.141038 -0.454382 0.162637
v 0.273293 -0.387001 0.161731
v 0.378250 -0.282053 0.160320
v 0.445637 -0.149811 0.158543
v 0.468857 -0.003219 0.156572
v 0.445638 0.138955 -0.174059
v 0.378251 0.271198 -0.175837
v 0.273293 0.376146 -0.177248
v 0.141039 0.443527 -0.178153
v 0.141038 -0.458800 -0.166025
v 0.273293 -0.391419 -0.166930
v 0.378250 -0.286471 -0.168341
v 0.445637 -0.154228 -0.170119
v 0.468857 -0.007637 -0.172089
v -0.005567 0.471163 0.150196
v -0.005567 0.184325 -0.010309
v -0.005567 -0.195180 -0.005208
v -0.005567 -0.477600 0.162949
v -0.005567 0.466745 -0.178466
v -0.005567 -0.482018 -0.165712
vt 0.435742 0.013308
vt 0.435754 0.025808
vt 0.059814 0.026165
vt 0.059803 0.013665
vt 0.435766 0.038308
vt 0.059826 0.038665
vt 0.435778 0.050808
vt 0.059838 0.051165
vt 0.435790 0.063308
vt 0.059850 0.063665
vt 0.425680 -0.000188
vt 0.425878 0.012311
vt 0.049985 0.018250
vt 0.049787 0.005751
vt 0.426075 0.024809
vt 0.050182 0.030748
vt 0.426273 0.037307
vt 0.050380 0.043247
vt 0.426470 0.049806
vt 0.050577 0.055745
vt 0.426668 0.062304
vt 0.050775 0.068244
vt 0.426865 0.074803
vt 0.050972 0.080742
vt 0.308379 0.959952
vt 0.264876 0.982255
vt 0.222472 0.833757
vt 0.342860 0.925299
vt 0.364945 0.881686
vt 0.372472 0.833383
vt 0.067740 0.882427
vt 0.059973 0.834162
vt 0.090043 0.925929
vt 0.124696 0.960410
vt 0.168309 0.982495
vt 0.216612 0.990022
vt 0.170351 0.987935
vt 0.126660 0.966005
vt 0.223984 0.839005
vt 0.091884 0.931648
vt 0.069427 0.888225
vt 0.061487 0.839989
vt 0.373982 0.838096
vt 0.366627 0.886426
vt 0.344697 0.930117
vt 0.310340 0.964893
vt 0.266917 0.987350
vt 0.218681 0.995290
vt 0.397221 0.917089
vt 0.393797 0.917089
vt 0.393797 0.894263
vt 0.397221 0.894263
vt 0.400645 0.917089
vt 0.400645 0.894263
vt 0.404069 0.917089
vt 0.404069 0.894263
vt 0.407492 0.917089
vt 0.407492 0.894263
vt 0.445155 0.917089
vt 0.441731 0.917089
vt 0.441731 0.894263
vt 0.445155 0.894263
vt 0.448579 0.917089
vt 0.448579 0.894263
vt 0.452003 0.917089
vt 0.452003 0.894263
vt 0.455427 0.917089
vt 0.455427 0.894263
vt 0.458851 0.917089
vt 0.458851 0.894263
vt 0.462275 0.917089
vt 0.462275 0.894263
vt 0.393797 0.871437
vt 0.397221 0.871437
vt 0.400645 0.871437
vt 0.404069 0.871437
vt 0.407492 0.871437
vt 0.441731 0.871437
vt 0.445155 0.871437
vt 0.448579 0.871437
vt 0.452003 0.871437
vt 0.455427 0.871437
vt 0.458851 0.871437
vt 0.462275 0.871437
vt 0.393797 0.848611
vt 0.397221 0.848611
vt 0.400645 0.848611
vt 0.404069 0.848611
vt 0.407492 0.848611
vt 0.441731 0.848611
vt 0.445155 0.848611
vt 0.448579 0.848611
vt 0.452003 0.848611
vt 0.455427 0.848611
vt 0.458851 0.848611
vt 0.462275 0.848611
vn 0.951057 0.309016 0.000000
vn 0.809017 0.587785 0.000000
vn 0.809017 0.587785 0.000000
vn 0.951057 0.309016 0.000000
vn 0.587785 0.809017 0.000000
vn 0.587785 0.809017 0.000000
vn 0.309017 0.951057 0.000000
vn 0.309017 0.951057 0.000000
vn 0.156434 0.987688 0.000000
vn 0.156434 0.987688 0.000000
vn 0.156435 -0.987688 0.000000
vn 0.309017 -0.951057 0.000000
vn 0.309017 -0.951057 0.000000
vn 0.156435 -0.987688 0.000000
vn 0.587785 -0.809017 0.000000
vn 0.587785 -0.809017 0.000000
vn 0.809017 -0.587785 0.000000
vn 0.809017 -0.587785 0.000000
vn 0.951057 -0.309017 0.000000
vn 0.951057 -0.309017 0.000000
vn 1.000000 -0.000001 0.000000
vn 1.000000 -0.000001 0.000000
vn 0.000000 0.000000 -1.000000
vn 0.000000 0.000000 -1.000000
vn 0.000000 0.000000 -1.000000
vn 0.000000 0.000000 -1.000000
vn 0.000000 0.000000 -1.000000
vn 0.000000 0.000000 -1.000000
vn -0.000000 0.000000 -1.000000
vn -0.000000 0.000000 -1.000000
vn 0.000000 0.000000 -1.000000
vn 0.000000 0.000000 -1.000000
vn -0.000000 0.000000 -1.000000
vn 0.000000 0.000000 -1.000000
vn 0.000000 0.000000 1.000000
vn 0.000000 0.000000 1.000000
vn -0.000000 0.000000 1.000000
vn 0.000000 0.000000 1.000000
vn 0.000000 0.000000 1.000000
vn 0.000000 0.000000 1.000000
vn -0.000000 0.000000 1.000000
vn -0.000000 0.000000 1.000000
vn 0.000000 0.000000 1.000000
vn -0.000000 0.000000 1.000000
vn -0.000000 0.000000 1.000000
vn 0.000000 0.000000 1.000000
vn -0.404508 -0.282226 0.869897
vn -0.475528 -0.142854 0.868024
vn -0.475528 -0.142854 0.868024
vn -0.404508 -0.282226 0.869897
vn -0.293893 -0.392832 0.871384
vn -0.293893 -0.392832 0.871384
vn -0.154508 -0.463845 0.872339
vn -0.154508 -0.463845 0.872339
vn -0.078945 -0.486791 0.869944
vn -0.078945 -0.486791 0.869944
vn -0.154508 0.487125 0.859556
vn -0.078945 0.509998 0.856545
vn -0.078945 0.509998 0.856545
vn -0.154508 0.487125 0.859556
vn -0.293893 0.416112 0.860510
vn -0.293893 0.416112 0.860510
vn -0.404509 0.305506 0.861997
vn -0.404509 0.305506 0.861997
vn -0.475528 0.166135 0.863870
vn -0.475528 0.166135 0.863870
vn -0.500000 0.011641 0.865947
vn -0.500000 0.011641 0.865947
vn 0.809017 0.587733 -0.007900
vn 0.951057 0.308988 -0.004153
vn 0.951057 0.308988 -0.004153
vn 0.809017 0.587733 -0.007900
vn 0.587785 0.808944 -0.010874
vn 0.587785 0.808944 -0.010874
vn 0.309017 0.950971 -0.012783
vn 0.309017 0.950971 -0.012783
vn 0.156434 0.987599 -0.013275
vn 0.156434 0.987599 -0.013275
vn 0.309017 -0.950971 0.012783
vn 0.156434 -0.987599 0.013275
vn 0.156434 -0.987599 0.013275
vn 0.309017 -0.950971 0.012783
vn 0.587785 -0.808944 0.010874
vn 0.587785 -0.808944 0.010874
vn 0.809017 -0.587732 0.007900
vn 0.809017 -0.587732 0.007900
vn 0.951057 -0.308989 0.004153
vn 0.951057 -0.308988 0.004153
vn 1.000000 -0.000001 0.000000
vn 1.000000 -0.000001 0.000000
vn -0.404508 -0.305506 -0.861997
vn -0.475528 -0.166134 -0.863871
vn -0.475528 -0.166134 -0.863871
vn -0.404508 -0.305506 -0.861997
vn -0.293893 -0.416112 -0.860510
vn -0.293893 -0.416112 -0.860510
vn -0.154508 -0.487125 -0.859556
vn -0.154508 -0.487125 -0.859556
vn -0.078945 -0.509998 -0.856545
vn -0.078945 -0.509998 -0.856545
vn -0.154508 0.463845 -0.872339
vn -0.078945 0.486791 -0.869944
vn -0.078945 0.486791 -0.869944
vn -0.154508 0.463845 -0.872339
vn -0.293893 0.392832 -0.871384
vn -0.293893 0.392832 -0.871384
vn -0.404509 0.282226 -0.869897
vn -0.404509 0.282226 -0.869897
vn -0.475528 0.142855 -0.868024
vn -0.475528 0.142855 -0.868024
vn -0.500000 -0.011639 -0.865947
vn -0.500000 -0.011639 -0.865947
vn -1.000000 0.000000 0.000000
vn -1.000000 0.000000 0.000000
vn -1.000000 0.000000 0.000000
vn -1.000000 0.000000 0.000000
vn -1.000000 0.000000 0.000000
vn -1.000000 0.000000 0.000000
vn -1.000000 -0.000000 0.000000
vn -1.000000 -0.000000 0.000000
vn -1.000000 -0.000000 0.000000
vn -1.000000 0.000000 0.000000
vn -1.000000 0.000000 0.000000
vn -1.000000 0.000000 0.000000
s 1
g polySurface1
usemtl standardSurface2SG
f 1/1/1 2/2/2 11/3/3 10/4/4
f 2/2/2 3/5/5 12/6/6 11/3/3
f 3/5/5 4/7/7 13/8/8 12/6/6
f 4/7/7 19/9/9 20/10/10 13/8/8
f 22/11/11 5/12/12 14/13/13 21/14/14
f 5/12/12 6/15/15 15/16/16 14/13/13
f 6/15/15 7/17/17 16/18/18 15/16/16
f 7/17/17 8/19/19 17/20/20 16/18/18
f 8/19/19 9/21/21 18/22/22 17/20/20
f 9/21/21 1/23/1 10/24/4 18/22/22
s 3
f 2/25/23 1/26/24 23/27/25
f 3/28/26 2/25/23 23/27/25
f 4/29/27 3/28/26 23/27/25
f 19/30/28 4/29/27 23/27/25
f 5/31/29 22/32/30 23/27/25
f 6/33/31 5/31/29 23/27/25
f 7/34/32 6/33/31 23/27/25
f 8/35/33 7/34/32 23/27/25
f 9/36/34 8/35/33 23/27/25
f 1/26/24 9/36/34 23/27/25
s 5
f 10/37/35 11/38/36 24/39/37
f 11/38/36 12/40/38 24/39/37
f 12/40/38 13/41/39 24/39/37
f 13/41/39 20/42/40 24/39/37
f 21/43/41 14/44/42 24/39/37
f 14/44/42 15/45/43 24/39/37
f 15/45/43 16/46/44 24/39/37
f 16/46/44 17/47/45 24/39/37
f 17/47/45 18/48/46 24/39/37
f 18/48/46 10/37/35 24/39/37
s 7
f 26/49/47 25/50/48 34/51/49 35/52/50
f 27/53/51 26/49/47 35/52/50 36/54/52
f 28/55/53 27/53/51 36/54/52 37/56/54
f 53/57/55 28/55/53 37/56/54 52/58/56
f 29/59/57 54/60/58 55/61/59 38/62/60
f 30/63/61 29/59/57 38/62/60 39/64/62
f 31/65/63 30/63/61 39/64/62 40/66/64
f 32/67/65 31/65/63 40/66/64 41/68/66
f 33/69/67 32/67/65 41/68/66 42/70/68
f 25/71/48 33/69/67 42/70/68 34/72/49
s 9
f 35/52/69 34/51/70 43/73/71 44/74/72
f 36/54/73 35/52/69 44/74/72 45/75/74
f 37/56/75 36/54/73 45/75/74 46/76/76
f 52/58/77 37/56/75 46/76/76 56/77/78
f 38/62/79 55/61/80 57/78/81 47/79/82
f 39/64/83 38/62/79 47/79/82 48/80/84
f 40/66/85 39/64/83 48/80/84 49/81/86
f 41/68/87 40/66/85 49/81/86 50/82/88
f 42/70/89 41/68/87 50/82/88 51/83/90
f 34/72/70 42/70/89 51/83/90 43/84/71
s 11
f 44/74/91 43/73/92 25/85/93 26/86/94
f 45/75/95 44/74/91 26/86/94 27/87/96
f 46/76/97 45/75/95 27/87/96 28/88/98
f 56/77/99 46/76/97 28/88/98 53/89/100
f 47/79/101 57/78/102 54/90/103 29/91/104
f 48/80/105 47/79/101 29/91/104 30/92/106
f 49/81/107 48/80/105 30/92/106 31/93/108
f 50/82/109 49/81/107 31/93/108 32/94/110
f 51/83/111 50/82/109 32/94/110 33/95/112
f 43/84/92 51/83/111 33/95/112 25/96/93
s off
f 20/10/113 19/30/114 23/27/115 22/11/116 21/43/117 24/39/118
f 52/58/119 56/77/120 53/57/121
f 55/61/122 54/90/123 57/78/124
