# This file uses centimeters as units for non-parametric coordinates.

mtllib door_left.mtl
g default
v -0.009593 0.189753 -0.002551
v -0.068235 0.180465 -0.002426
v -0.121136 0.153513 -0.002063
v -0.163119 0.111534 -0.001499
v -0.190074 0.058637 -0.000788
v -0.199362 0.000000 0.000000
v -0.190074 -0.058637 0.000788
v -0.163119 -0.111534 0.001499
v -0.121136 -0.153513 0.002063
v -0.068234 -0.180465 0.002426
v -0.009593 -0.189753 0.002551
v -0.009593 0.476591 0.157954
v -0.156198 0.453373 0.158266
v -0.288452 0.385992 0.159172
v -0.393410 0.281043 0.160582
v -0.460797 0.148801 0.162360
v -0.484017 0.002209 0.164331
v -0.460797 -0.144383 0.166301
v -0.393410 -0.276625 0.168079
v -0.288452 -0.381574 0.169489
v -0.156198 -0.448955 0.170395
v -0.009593 -0.472172 0.170707
v -0.009593 0.472173 -0.170707
v -0.156198 0.448955 -0.170395
v -0.288452 0.381574 -0.169489
v -0.393410 0.276626 -0.168079
v -0.460797 0.144383 -0.166301
v -0.484017 -0.002209 -0.164331
v -0.460797 -0.148801 -0.162360
v -0.393410 -0.281043 -0.160582
v -0.288452 -0.385992 -0.159172
v -0.156198 -0.453373 -0.158266
v -0.009593 -0.476590 -0.157954
v -0.013454 1.000000 -0.043702
v -0.322471 0.951057 -0.043702
v -0.601240 0.809017 -0.043702
v -0.822471 0.587785 -0.043702
v -0.964511 0.309017 -0.043702
v -1.013454 0.000000 -0.043702
v -0.964511 -0.309017 -0.043702
v -0.822471 -0.587785 -0.043702
v -0.601239 -0.809017 -0.043702
v -0.322471 -0.951057 -0.043702
v -0.013454 -1.000000 -0.043702
v -0.013454 1.000000 0.043702
v -0.322471 0.951057 0.043702
v -0.601240 0.809017 0.043702
v -0.822471 0.587785 0.043702
v -0.964511 0.309017 0.043702
v -1.013454 0.000000 0.043702
v -0.964511 -0.309017 0.043702
v -0.822471 -0.587785 0.043702
v -0.601239 -0.809017 0.043702
v -0.322471 -0.951057 0.043702
v -0.013454 -1.000000 0.043702
v -0.013454 0.000000 -0.043702
v -0.013454 0.000000 0.043702
vt 0.410916 0.917089
vt 0.407492 0.917089
vt 0.407492 0.894263
vt 0.410916 0.894263
vt 0.414340 0.917089
vt 0.414340 0.894263
vt 0.417764 0.917089
vt 0.417764 0.894263
vt 0.421188 0.917089
vt 0.421188 0.894263
vt 0.424612 0.917089
vt 0.424612 0.894263
vt 0.428036 0.917089
vt 0.428036 0.894263
vt 0.431460 0.917089
vt 0.431460 0.894263
vt 0.434884 0.917089
vt 0.434884 0.894263
vt 0.438307 0.917089
vt 0.438307 0.894263
vt 0.441731 0.917089
vt 0.441731 0.894263
vt 0.407492 0.871437
vt 0.410916 0.871437
vt 0.414340 0.871437
vt 0.417764 0.871437
vt 0.421188 0.871437
vt 0.424612 0.871437
vt 0.428036 0.871437
vt 0.431460 0.871437
vt 0.434884 0.871437
vt 0.438307 0.871437
vt 0.441731 0.871437
vt 0.407492 0.848611
vt 0.410916 0.848611
vt 0.414340 0.848611
vt 0.417764 0.848611
vt 0.421188 0.848611
vt 0.424612 0.848611
vt 0.428036 0.848611
vt 0.431460 0.848611
vt 0.434884 0.848611
vt 0.438307 0.848611
vt 0.441731 0.848611
vt 0.146048 0.093144
vt 0.145904 0.085512
vt 0.375431 0.081165
vt 0.375576 0.088797
vt 0.145759 0.077880
vt 0.375287 0.073534
vt 0.145615 0.070248
vt 0.375142 0.065902
vt 0.145470 0.062616
vt 0.374998 0.058270
vt 0.145326 0.054985
vt 0.374853 0.050638
vt 0.145181 0.047353
vt 0.374709 0.043007
vt 0.145037 0.039721
vt 0.374564 0.035375
vt 0.144892 0.032089
vt 0.374419 0.027743
vt 0.144748 0.024458
vt 0.374275 0.020111
vt 0.144603 0.016826
vt 0.374130 0.012479
vt 0.062650 0.886882
vt 0.054225 0.837635
vt 0.207519 0.835738
vt 0.085882 0.931116
vt 0.121646 0.966005
vt 0.166441 0.988136
vt 0.215881 0.995341
vt 0.265129 0.986915
vt 0.309363 0.963683
vt 0.344252 0.927919
vt 0.366383 0.883125
vt 0.373587 0.833684
vt 0.375346 0.832176
vt 0.368819 0.881711
vt 0.209321 0.836505
vt 0.347304 0.926804
vt 0.312907 0.963042
vt 0.268996 0.986878
vt 0.219869 0.995977
vt 0.170334 0.989450
vt 0.125240 0.967936
vt 0.089002 0.933539
vt 0.065167 0.889628
vt 0.056067 0.840500
vn 0.154509 -0.463845 0.872339
vn 0.078945 -0.486791 0.869944
vn 0.078945 -0.486791 0.869944
vn 0.154509 -0.463845 0.872339
vn 0.293893 -0.392832 0.871384
vn 0.293893 -0.392832 0.871384
vn 0.404508 -0.282226 0.869897
vn 0.404508 -0.282226 0.869897
vn 0.475528 -0.142855 0.868024
vn 0.475528 -0.142855 0.868024
vn 0.500000 0.011640 0.865947
vn 0.500000 0.011640 0.865947
vn 0.475528 0.166135 0.863871
vn 0.475528 0.166135 0.863871
vn 0.404508 0.305506 0.861997
vn 0.404508 0.305506 0.861997
vn 0.293893 0.416112 0.860510
vn 0.293893 0.416112 0.860510
vn 0.154509 0.487125 0.859556
vn 0.154509 0.487125 0.859556
vn 0.078945 0.509998 0.856545
vn 0.078945 0.509998 0.856545
vn -0.309017 0.950971 -0.012783
vn -0.156434 0.987599 -0.013275
vn -0.156434 0.987599 -0.013275
vn -0.309017 0.950971 -0.012783
vn -0.587786 0.808944 -0.010874
vn -0.587786 0.808944 -0.010874
vn -0.809017 0.587732 -0.007900
vn -0.809017 0.587732 -0.007900
vn -0.951057 0.308989 -0.004153
vn -0.951057 0.308989 -0.004153
vn -1.000000 0.000000 0.000000
vn -1.000000 0.000000 0.000000
vn -0.951057 -0.308989 0.004153
vn -0.951057 -0.308989 0.004153
vn -0.809017 -0.587732 0.007900
vn -0.809017 -0.587732 0.007900
vn -0.587785 -0.808944 0.010874
vn -0.587785 -0.808944 0.010874
vn -0.309017 -0.950971 0.012783
vn -0.309017 -0.950971 0.012783
vn -0.156434 -0.987599 0.013275
vn -0.156434 -0.987599 0.013275
vn 0.154509 -0.487125 -0.859556
vn 0.078945 -0.509998 -0.856545
vn 0.078945 -0.509998 -0.856545
vn 0.154509 -0.487125 -0.859556
vn 0.293893 -0.416112 -0.860510
vn 0.293893 -0.416112 -0.860510
vn 0.404508 -0.305506 -0.861997
vn 0.404508 -0.305506 -0.861997
vn 0.475528 -0.166135 -0.863871
vn 0.475528 -0.166135 -0.863871
vn 0.500000 -0.011640 -0.865947
vn 0.500000 -0.011640 -0.865947
vn 0.475528 0.142855 -0.868024
vn 0.475528 0.142855 -0.868024
vn 0.404508 0.282226 -0.869897
vn 0.404508 0.282226 -0.869897
vn 0.293893 0.392832 -0.871384
vn 0.293893 0.392832 -0.871384
vn 0.154509 0.463845 -0.872339
vn 0.154509 0.463845 -0.872339
vn 0.078945 0.486791 -0.869944
vn 0.078945 0.486791 -0.869944
vn -0.156434 0.987688 0.000000
vn -0.309017 0.951056 0.000000
vn -0.309017 0.951056 0.000000
vn -0.156434 0.987688 0.000000
vn -0.587785 0.809017 0.000000
vn -0.587785 0.809017 0.000000
vn -0.809017 0.587785 0.000000
vn -0.809017 0.587785 0.000000
vn -0.951057 0.309017 0.000000
vn -0.951057 0.309017 0.000000
vn -1.000000 0.000000 0.000000
vn -1.000000 0.000000 0.000000
vn -0.951057 -0.309017 0.000000
vn -0.951057 -0.309017 0.000000
vn -0.809017 -0.587785 0.000000
vn -0.809017 -0.587785 0.000000
vn -0.587785 -0.809017 0.000000
vn -0.587785 -0.809017 0.000000
vn -0.309017 -0.951057 0.000000
vn -0.309017 -0.951057 0.000000
vn -0.156434 -0.987688 0.000000
vn -0.156434 -0.987688 0.000000
vn -0.000000 0.000000 -1.000000
vn 0.000000 0.000000 -1.000000
vn -0.000000 0.000000 -1.000000
vn -0.000000 0.000000 -1.000000
vn 0.000000 0.000000 -1.000000
vn 0.000000 0.000000 -1.000000
vn 0.000000 0.000000 -1.000000
vn 0.000000 0.000000 -1.000000
vn 0.000000 0.000000 -1.000000
vn 0.000000 0.000000 -1.000000
vn 0.000000 0.000000 -1.000000
vn 0.000000 0.000000 -1.000000
vn 0.000000 0.000000 1.000000
vn -0.000000 0.000000 1.000000
vn -0.000000 0.000000 1.000000
vn -0.000000 0.000000 1.000000
vn 0.000000 0.000000 1.000000
vn 0.000000 0.000000 1.000000
vn 0.000000 0.000000 1.000000
vn 0.000000 0.000000 1.000000
vn 0.000000 0.000000 1.000000
vn 0.000000 0.000000 1.000000
vn 0.000000 0.000000 1.000000
vn 0.000000 0.000000 1.000000
vn 1.000000 -0.000000 0.000000
vn 1.000000 -0.000000 0.000000
vn 1.000000 -0.000000 0.000000
vn 1.000000 -0.000000 0.000000
vn 1.000000 -0.000000 0.000000
vn 1.000000 -0.000000 0.000000
vn 1.000000 0.000000 0.000000
vn 1.000000 0.000000 0.000000
vn 1.000000 0.000000 0.000000
vn 1.000000 0.000000 0.000000
vn 1.000000 0.000000 0.000000
vn 1.000000 0.000000 0.000000
s 1
g polySurface4
usemtl standardSurface2SG
f 2/1/1 1/2/2 12/3/3 13/4/4
f 3/5/5 2/1/1 13/4/4 14/6/6
f 4/7/7 3/5/5 14/6/6 15/8/8
f 5/9/9 4/7/7 15/8/8 16/10/10
f 6/11/11 5/9/9 16/10/10 17/12/12
f 7/13/13 6/11/11 17/12/12 18/14/14
f 8/15/15 7/13/13 18/14/14 19/16/16
f 9/17/17 8/15/15 19/16/16 20/18/18
f 10/19/19 9/17/17 20/18/18 21/20/20
f 11/21/21 10/19/19 21/20/20 22/22/22
s 2
f 13/4/23 12/3/24 23/23/25 24/24/26
f 14/6/27 13/4/23 24/24/26 25/25/28
f 15/8/29 14/6/27 25/25/28 26/26/30
f 16/10/31 15/8/29 26/26/30 27/27/32
f 17/12/33 16/10/31 27/27/32 28/28/34
f 18/14/35 17/12/33 28/28/34 29/29/36
f 19/16/37 18/14/35 29/29/36 30/30/38
f 20/18/39 19/16/37 30/30/38 31/31/40
f 21/20/41 20/18/39 31/31/40 32/32/42
f 22/22/43 21/20/41 32/32/42 33/33/44
s 3
f 24/24/45 23/23/46 1/34/47 2/35/48
f 25/25/49 24/24/45 2/35/48 3/36/50
f 26/26/51 25/25/49 3/36/50 4/37/52
f 27/27/53 26/26/51 4/37/52 5/38/54
f 28/28/55 27/27/53 5/38/54 6/39/56
f 29/29/57 28/28/55 6/39/56 7/40/58
f 30/30/59 29/29/57 7/40/58 8/41/60
f 31/31/61 30/30/59 8/41/60 9/42/62
f 32/32/63 31/31/61 9/42/62 10/43/64
f 33/33/65 32/32/63 10/43/64 11/44/66
s 4
f 34/45/67 35/46/68 46/47/69 45/48/70
f 35/46/68 36/49/71 47/50/72 46/47/69
f 36/49/71 37/51/73 48/52/74 47/50/72
f 37/51/73 38/53/75 49/54/76 48/52/74
f 38/53/75 39/55/77 50/56/78 49/54/76
f 39/55/77 40/57/79 51/58/80 50/56/78
f 40/57/79 41/59/81 52/60/82 51/58/80
f 41/59/81 42/61/83 53/62/84 52/60/82
f 42/61/83 43/63/85 54/64/86 53/62/84
f 43/63/85 44/65/87 55/66/88 54/64/86
s 5
f 35/67/89 34/68/90 56/69/91
f 36/70/92 35/67/89 56/69/91
f 37/71/93 36/70/92 56/69/91
f 38/72/94 37/71/93 56/69/91
f 39/73/95 38/72/94 56/69/91
f 40/74/96 39/73/95 56/69/91
f 41/75/97 40/74/96 56/69/91
f 42/76/98 41/75/97 56/69/91
f 43/77/99 42/76/98 56/69/91
f 44/78/100 43/77/99 56/69/91
s 6
f 45/79/101 46/80/102 57/81/103
f 46/80/102 47/82/104 57/81/103
f 47/82/104 48/83/105 57/81/103
f 48/83/105 49/84/106 57/81/103
f 49/84/106 50/85/107 57/81/103
f 50/85/107 51/86/108 57/81/103
f 51/86/108 52/87/109 57/81/103
f 52/87/109 53/88/110 57/81/103
f 53/88/110 54/89/111 57/81/103
f 54/89/111 55/90/112 57/81/103
s off
f 45/79/113 57/81/114 55/66/115 44/78/116 56/69/117 34/45/118
f 12/3/119 1/34/120 23/23/121
f 22/22/122 33/33/123 11/21/124
