# This file uses centimeters as units for non-parametric coordinates.

mtllib tube.mtl
g default
v 0.000000 100.000147 899.999984
v -38.268280 92.388097 899.999985
v -70.710754 70.710824 899.999988
v -92.387962 -38.268193 900.000006
v -70.710754 -70.710530 900.000012
v -38.268280 -92.387804 900.000015
v 38.268280 -92.387804 900.000015
v 92.387772 38.268507 899.999994
v -92.387962 38.268489 899.999994
v 0.000000 -99.999853 900.000016
v 70.710564 -70.710536 900.000012
v 92.387962 -38.268211 900.000006
v 70.710754 70.710818 899.999988
v -100.000000 0.000143 900.000000
v 100.000000 0.000149 900.000000
v 38.268280 92.388091 899.999985
v 0.000000 99.999853 -900.000016
v -38.268280 92.387804 -900.000015
v -70.710754 70.710530 -900.000012
v -92.387962 -38.268486 -899.999994
v -70.710754 -70.710824 -899.999988
v -38.268280 -92.388097 -899.999985
v 38.268280 -92.388097 -899.999985
v 92.387772 38.268214 -900.000006
v -92.387962 38.268196 -900.000006
v 0.000000 -100.000147 -899.999984
v 70.710564 -70.710829 -899.999988
v 92.387962 -38.268504 -899.999994
v 70.710754 70.710524 -900.000012
v -100.000000 -0.000150 -900.000000
v 100.000000 -0.000145 -900.000000
v 38.268280 92.387798 -900.000015
vt 0.004019 0.201114
vt 0.830530 0.004031
vt 0.004019 0.165278
vt 0.004019 0.021936
vt 0.830529 0.183192
vt 0.004019 0.039854
vt 0.830529 0.111528
vt 0.830530 0.290688
vt 0.830529 0.075696
vt 0.830530 0.039864
vt 0.830530 0.272772
vt 0.004019 0.057772
vt 0.004019 0.093607
vt 0.004020 0.272785
vt 0.004019 0.236949
vt 0.830529 0.219024
vt 0.004020 0.254867
vt 0.004019 0.111525
vt 0.830529 0.129444
vt 0.830529 0.057780
vt 0.004020 0.290702
vt 0.830529 0.093612
vt 0.004020 0.004019
vt 0.830530 0.254856
vt 0.004019 0.075690
vt 0.830530 0.021948
vt 0.830529 0.201108
vt 0.004019 0.219031
vt 0.004019 0.129443
vt 0.004019 0.147361
vt 0.830529 0.165276
vt 0.830529 0.236940
vt 0.830529 0.147360
vt 0.004019 0.183196
vn 1.000000 0.000002 -0.000000
vn 1.000000 0.000002 -0.000000
vn 0.923880 0.382683 -0.000000
vn 0.923880 0.382683 -0.000000
vn 0.923879 -0.382685 0.000000
vn 0.923879 -0.382685 0.000000
vn 1.000000 0.000002 -0.000000
vn 1.000000 0.000002 -0.000000
vn 0.923880 0.382683 -0.000000
vn 0.923880 0.382683 -0.000000
vn 0.707108 0.707106 -0.000000
vn 0.707108 0.707106 -0.000000
vn 0.707108 0.707106 -0.000000
vn 0.707108 0.707106 -0.000000
vn 0.382683 0.923880 -0.000000
vn 0.382683 0.923880 -0.000000
vn 0.000000 1.000000 -0.000000
vn 0.000000 1.000000 -0.000000
vn -0.382683 0.923880 -0.000000
vn -0.382683 0.923880 -0.000000
vn 0.382683 0.923880 -0.000000
vn 0.382683 0.923880 -0.000000
vn 0.000000 1.000000 -0.000000
vn 0.000000 1.000000 -0.000000
vn -0.707107 0.707107 -0.000000
vn -0.707107 0.707107 -0.000000
vn -0.923880 0.382683 -0.000000
vn -0.923880 0.382683 -0.000000
vn -0.382683 0.923880 -0.000000
vn -0.382683 0.923880 -0.000000
vn -0.707107 0.707107 -0.000000
vn -0.707107 0.707107 -0.000000
vn -1.000000 -0.000000 0.000000
vn -1.000000 -0.000000 0.000000
vn -0.923880 -0.382683 0.000000
vn -0.923880 -0.382683 0.000000
vn -0.923880 -0.382683 0.000000
vn -0.923880 -0.382683 0.000000
vn -0.707107 -0.707107 0.000000
vn -0.707107 -0.707107 0.000000
vn -0.382683 -0.923880 0.000000
vn -0.382683 -0.923880 0.000000
vn 0.000000 -1.000000 0.000000
vn 0.000000 -1.000000 0.000000
vn -0.707107 -0.707107 0.000000
vn -0.707107 -0.707107 0.000000
vn -0.382683 -0.923880 0.000000
vn -0.382683 -0.923880 0.000000
vn 0.000000 -1.000000 0.000000
vn 0.000000 -1.000000 0.000000
vn 0.382684 -0.923879 0.000000
vn 0.382684 -0.923879 0.000000
vn 0.707106 -0.707108 0.000000
vn 0.707106 -0.707108 0.000000
vn 0.923879 -0.382685 0.000000
vn 0.923879 -0.382685 0.000000
vn 0.382684 -0.923879 0.000000
vn 0.382684 -0.923879 0.000000
vn 0.707106 -0.707108 0.000000
vn 0.707106 -0.707108 0.000000
vn -0.923880 0.382683 -0.000000
vn -0.923880 0.382683 -0.000000
vn -1.000000 -0.000000 0.000000
vn -1.000000 -0.000000 0.000000
s off
g Pipe_long
usemtl blinn1SG
f 15/16/1 31/28/2 24/15/3 8/32/4
f 12/27/5 28/1/6 31/28/7 15/16/8
f 8/32/9 24/15/10 29/17/11 13/24/12
f 13/24/13 29/17/14 32/14/15 16/11/16
f 1/2/17 17/23/18 18/4/19 2/26/20
f 16/11/21 32/14/22 17/21/23 1/8/24
f 3/10/25 19/6/26 25/12/27 9/20/28
f 2/26/29 18/4/30 19/6/31 3/10/32
f 14/9/33 30/25/34 20/13/35 4/22/36
f 4/22/37 20/13/38 21/18/39 5/7/40
f 6/19/41 22/29/42 26/30/43 10/33/44
f 5/7/45 21/18/46 22/29/47 6/19/48
f 10/33/49 26/30/50 23/3/51 7/31/52
f 11/5/53 27/34/54 28/1/55 12/27/56
f 7/31/57 23/3/58 27/34/59 11/5/60
f 9/20/61 25/12/62 30/25/63 14/9/64
